<?xml version="1.0" encoding="utf-8"?>
<!-- Svg Vector Icons : http://www.onlinewebfonts.com/icon -->
<!DOCTYPE svg PUBLIC "-//W3C//DTD SVG 1.1//EN" "http://www.w3.org/Graphics/SVG/1.1/DTD/svg11.dtd">
<svg version="1.1" xmlns="http://www.w3.org/2000/svg" xmlns:xlink="http://www.w3.org/1999/xlink" x="0px" y="0px" viewBox="0 0 1000 1000" enable-background="new 0 0 1000 1000" xml:space="preserve">
<metadata> Svg Vector Icons : http://www.onlinewebfonts.com/icon </metadata>
<g><path d="M951.5,309.3c-24.7-58.4-60-110.8-105-155.7c-45-45-97.4-80.3-155.7-105C630.3,23,566.1,10,500,10c-66.1,0-130.3,13-190.7,38.5c-58.4,24.7-110.8,60-155.7,105c-45,45-80.3,97.4-105,155.7C23,369.7,10,433.9,10,500c0,66.1,13,130.3,38.5,190.7c24.7,58.4,60,110.8,105,155.7c45,45,97.4,80.3,155.7,105C369.7,977,433.9,990,500,990c66.1,0,130.3-13,190.7-38.5c58.3-24.7,110.8-60,155.7-105c45-45,80.3-97.4,105-155.7C977,630.3,990,566.1,990,500C990,433.9,977,369.7,951.5,309.3z M500,941.5C256.6,941.5,58.5,743.4,58.5,500C58.5,256.6,256.6,58.5,500,58.5c243.4,0,441.5,198.1,441.5,441.5C941.5,743.4,743.4,941.5,500,941.5z"/><path d="M649.6,391.1l-75.7-75.7c-7.6-7.6-19.9-7.6-27.5,0L370.9,490.9l-11,11l-8.1,8.1c-2,2-3.4,4.2-4.4,6.7c0,0.1-0.1,0.3-0.1,0.4c-0.3,0.9-0.6,1.8-0.8,2.8l-30.5,114c-1.2,4.4,0.2,8.9,3.3,11.9c3,3.1,7.5,4.4,11.9,3.3l114.3-30.5c0.6-0.1,1.3-0.3,1.9-0.5c0.6-0.2,1.2-0.4,1.8-0.7c2.1-0.9,4.2-2.3,5.9-4l8.1-8.1l11-11l175.5-175.5C657.2,411.1,657.2,398.7,649.6,391.1z M344.9,620.2l9.2-33.5l24.3,24.3L344.9,620.2z M439.7,594.1l-44,12.1l-36.9-36.9l12.1-44l6.2-6.2l68.8,68.8L439.7,594.1z M457,576.9l-68.8-68.8l172-172l68.8,68.8L457,576.9z"/><path d="M667.9,611.8H489.2c-1.5,0-2.7,1.2-2.7,2.7v20.4c0,1.5,1.2,2.7,2.7,2.7h178.7c1.5,0,2.7-1.2,2.7-2.7v-20.4C670.6,613,669.4,611.8,667.9,611.8z"/><path d="M553.7,562v20.4c0,1.5,0.8,2.7,1.7,2.7h113.1c0.9,0,1.7-1.2,1.7-2.7V562c0-1.5-0.8-2.7-1.7-2.7H555.4C554.4,559.3,553.7,560.5,553.7,562z"/></g>
</svg>